<svg width="144" height="48" viewBox="0 0 144 48" fill="none" xmlns="http://www.w3.org/2000/svg">
<rect width="144" height="48" fill="#FCEC41"/>
<path d="M24.5 30L34.5 30" stroke="#2F323A" stroke-width="2" stroke-linecap="round" stroke-linejoin="round"/>
<path d="M24.5 24L40.5 24" stroke="#2F323A" stroke-width="2" stroke-linecap="round" stroke-linejoin="round"/>
<path d="M24.5 18L30.5 18" stroke="#2F323A" stroke-width="2" stroke-linecap="round" stroke-linejoin="round"/>
<path d="M53.76 31V18.04H55.362V24.124L61.032 18.04H63.048L57.162 24.331L63.507 31H61.437L55.362 24.664V31H53.76ZM67.5269 31.27C66.8009 31.27 66.1919 31.138 65.6999 30.874C65.2139 30.604 64.8449 30.25 64.5929 29.812C64.3469 29.374 64.2239 28.894 64.2239 28.372C64.2239 27.862 64.3199 27.421 64.5119 27.049C64.7099 26.671 64.9859 26.359 65.3399 26.113C65.6939 25.861 66.1169 25.663 66.6089 25.519C67.0709 25.393 67.5869 25.285 68.1569 25.195C68.7329 25.099 69.3149 25.012 69.9029 24.934C70.4909 24.856 71.0399 24.781 71.5499 24.709L70.9739 25.042C70.9919 24.178 70.8179 23.539 70.4519 23.125C70.0919 22.711 69.4679 22.504 68.5799 22.504C67.9919 22.504 67.4759 22.639 67.0319 22.909C66.5939 23.173 66.2849 23.605 66.1049 24.205L64.5839 23.746C64.8179 22.894 65.2709 22.225 65.9429 21.739C66.6149 21.253 67.4999 21.01 68.5979 21.01C69.4799 21.01 70.2359 21.169 70.8659 21.487C71.5019 21.799 71.9579 22.273 72.2339 22.909C72.3719 23.209 72.4589 23.536 72.4949 23.89C72.5309 24.238 72.5489 24.604 72.5489 24.988V31H71.1269V28.669L71.4599 28.885C71.0939 29.671 70.5809 30.265 69.9209 30.667C69.2669 31.069 68.4689 31.27 67.5269 31.27ZM67.7699 29.929C68.3459 29.929 68.8439 29.827 69.2639 29.623C69.6899 29.413 70.0319 29.14 70.2899 28.804C70.5479 28.462 70.7159 28.09 70.7939 27.688C70.8839 27.388 70.9319 27.055 70.9379 26.689C70.9499 26.317 70.9559 26.032 70.9559 25.834L71.5139 26.077C70.9919 26.149 70.4789 26.218 69.9749 26.284C69.4709 26.35 68.9939 26.422 68.5439 26.5C68.0939 26.572 67.6889 26.659 67.3289 26.761C67.0649 26.845 66.8159 26.953 66.5819 27.085C66.3539 27.217 66.1679 27.388 66.0239 27.598C65.8859 27.802 65.8169 28.057 65.8169 28.363C65.8169 28.627 65.8829 28.879 66.0149 29.119C66.1529 29.359 66.3629 29.554 66.6449 29.704C66.9329 29.854 67.3079 29.929 67.7699 29.929ZM77.4629 31V22.738H74.0789V21.28H82.4489V22.738H79.0649V31H77.4629ZM86.5992 31.27C85.8732 31.27 85.2642 31.138 84.7722 30.874C84.2862 30.604 83.9172 30.25 83.6652 29.812C83.4192 29.374 83.2962 28.894 83.2962 28.372C83.2962 27.862 83.3922 27.421 83.5842 27.049C83.7822 26.671 84.0582 26.359 84.4122 26.113C84.7662 25.861 85.1892 25.663 85.6812 25.519C86.1432 25.393 86.6592 25.285 87.2292 25.195C87.8052 25.099 88.3872 25.012 88.9752 24.934C89.5632 24.856 90.1122 24.781 90.6222 24.709L90.0462 25.042C90.0642 24.178 89.8902 23.539 89.5242 23.125C89.1642 22.711 88.5402 22.504 87.6522 22.504C87.0642 22.504 86.5482 22.639 86.1042 22.909C85.6662 23.173 85.3572 23.605 85.1772 24.205L83.6562 23.746C83.8902 22.894 84.3432 22.225 85.0152 21.739C85.6872 21.253 86.5722 21.01 87.6702 21.01C88.5522 21.01 89.3082 21.169 89.9382 21.487C90.5742 21.799 91.0302 22.273 91.3062 22.909C91.4442 23.209 91.5312 23.536 91.5672 23.89C91.6032 24.238 91.6212 24.604 91.6212 24.988V31H90.1992V28.669L90.5322 28.885C90.1662 29.671 89.6532 30.265 88.9932 30.667C88.3392 31.069 87.5412 31.27 86.5992 31.27ZM86.8422 29.929C87.4182 29.929 87.9162 29.827 88.3362 29.623C88.7622 29.413 89.1042 29.14 89.3622 28.804C89.6202 28.462 89.7882 28.09 89.8662 27.688C89.9562 27.388 90.0042 27.055 90.0102 26.689C90.0222 26.317 90.0282 26.032 90.0282 25.834L90.5862 26.077C90.0642 26.149 89.5512 26.218 89.0472 26.284C88.5432 26.35 88.0662 26.422 87.6162 26.5C87.1662 26.572 86.7612 26.659 86.4012 26.761C86.1372 26.845 85.8882 26.953 85.6542 27.085C85.4262 27.217 85.2402 27.388 85.0962 27.598C84.9582 27.802 84.8892 28.057 84.8892 28.363C84.8892 28.627 84.9552 28.879 85.0872 29.119C85.2252 29.359 85.4352 29.554 85.7172 29.704C86.0052 29.854 86.3802 29.929 86.8422 29.929ZM93.0612 31V29.623C93.4212 29.689 93.6942 29.677 93.8802 29.587C94.0722 29.491 94.2132 29.326 94.3032 29.092C94.3992 28.852 94.4772 28.552 94.5372 28.192C94.6392 27.622 94.7262 26.986 94.7982 26.284C94.8762 25.582 94.9452 24.814 95.0052 23.98C95.0712 23.14 95.1312 22.24 95.1852 21.28H101.98V31H100.378V22.801H96.6432C96.6072 23.353 96.5622 23.92 96.5082 24.502C96.4602 25.084 96.4092 25.651 96.3552 26.203C96.3012 26.749 96.2412 27.259 96.1752 27.733C96.1152 28.201 96.0492 28.606 95.9772 28.948C95.8632 29.536 95.7042 30.007 95.5002 30.361C95.2962 30.709 95.0022 30.934 94.6182 31.036C94.2342 31.144 93.7152 31.132 93.0612 31ZM108.648 31.27C107.682 31.27 106.848 31.051 106.146 30.613C105.45 30.175 104.913 29.569 104.535 28.795C104.157 28.021 103.968 27.133 103.968 26.131C103.968 25.111 104.16 24.217 104.544 23.449C104.928 22.681 105.471 22.084 106.173 21.658C106.875 21.226 107.7 21.01 108.648 21.01C109.62 21.01 110.457 21.229 111.159 21.667C111.861 22.099 112.398 22.702 112.77 23.476C113.148 24.244 113.337 25.129 113.337 26.131C113.337 27.145 113.148 28.039 112.77 28.813C112.392 29.581 111.852 30.184 111.15 30.622C110.448 31.054 109.614 31.27 108.648 31.27ZM108.648 29.749C109.656 29.749 110.406 29.413 110.898 28.741C111.39 28.069 111.636 27.199 111.636 26.131C111.636 25.033 111.387 24.16 110.889 23.512C110.391 22.858 109.644 22.531 108.648 22.531C107.97 22.531 107.412 22.684 106.974 22.99C106.536 23.296 106.209 23.719 105.993 24.259C105.777 24.799 105.669 25.423 105.669 26.131C105.669 27.223 105.921 28.099 106.425 28.759C106.929 29.419 107.67 29.749 108.648 29.749ZM115.319 31V21.28H122.069V22.801H116.921V31H115.319Z" fill="#171B24"/>
</svg>
